<svg id="Layer_1" data-name="Layer 1" xmlns="http://www.w3.org/2000/svg" width="237.466" height="110.016" viewBox="0 0 237.466 110.016">
  <defs>
    <style>
      .cls-1 {
        fill: #fff100;
      }

      .cls-2 {
        fill: none;
      }
    </style>
  </defs>
  <title>agilus_logo_web</title>
  <g>
    <path class="cls-1" d="M32.6,37.87a5.266,5.266,0,1,1,0-10.532h85.088c1.575,0,2.633,2.478,2.633,5.266s-1.058,5.266-2.633,5.266Z"/>
    <path d="M88.114,54.435A10.338,10.338,0,0,0,77.62,65.077,10.209,10.209,0,0,0,88.114,75.719,10.533,10.533,0,0,0,98.756,65.077c0-6.873-4.952-10.642-10.642-10.642m-.739,38.281c7.021,0,11.528-3.917,11.528-13.6V77.6c-2.964,4-7.02,5.437-11.676,5.437-9.311,0-17.44-6.947-17.44-17.884,0-11.011,8.129-18.106,17.44-18.106,4.656,0,9.533,2.069,11.676,5.838V51.557a3.787,3.787,0,0,1,3.7-3.843,3.88,3.88,0,0,1,3.916,3.843l-.074,25.935c-.074,15.889-7.464,22.318-19.066,22.318a17.651,17.651,0,0,1-13.967-6.651A3.512,3.512,0,0,1,74,88.208a3.792,3.792,0,0,1,5.025.739,11.734,11.734,0,0,0,8.351,3.769"/>
    <path d="M45.718,75.713a10.216,10.216,0,0,1-10.5-10.651,10.347,10.347,0,0,1,10.5-10.651c5.695,0,10.65,3.772,10.65,10.651a10.541,10.541,0,0,1-10.65,10.651m18.3-10.7c0-11.012-8.329-17.959-19-17.959h-.013c-9.3,0-17.669,6.947-17.669,17.959s8.2,18.033,17.5,18.033c4.282,0,8.708-1.215,11.593-4.948v.735a3.784,3.784,0,0,0,3.692,3.843,3.878,3.878,0,0,0,3.913-3.843V66.85Z"/>
    <path d="M121.5,51.556a3.879,3.879,0,0,0-3.916-3.842,3.786,3.786,0,0,0-3.694,3.842V78.838a3.786,3.786,0,0,0,3.694,3.842,3.879,3.879,0,0,0,3.916-3.842Z"/>
    <path d="M137.607,31.178a3.879,3.879,0,0,0-3.916-3.842A3.786,3.786,0,0,0,130,31.178v47.66a3.786,3.786,0,0,0,3.694,3.842,3.879,3.879,0,0,0,3.916-3.842Z"/>
    <path d="M161.381,83.04A16.255,16.255,0,0,1,145,66.812v-15.3a3.8,3.8,0,1,1,7.609,0V67.008a8.774,8.774,0,0,0,17.548,0V51.514a3.8,3.8,0,1,1,7.609,0v15.3A16.254,16.254,0,0,1,161.381,83.04"/>
    <path d="M209.6,69.407a9.507,9.507,0,0,0-5.135-5.335c-1.477-.712-3.021-1.352-4.515-1.972-.754-.312-4.937-2.061-5.746-2.52a3.146,3.146,0,0,1-1.707-3.353,3.366,3.366,0,0,1,2.77-2.818,8.022,8.022,0,0,1,5.956.78,18.521,18.521,0,0,1,2.26,1.48l0,0a3.231,3.231,0,0,0,4.1-4.98l0,0c-.019-.017-.04-.033-.06-.05-.044-.039-.088-.077-.134-.113a16.459,16.459,0,0,0-17.206-1.832,9.136,9.136,0,0,0-4.774,10.726,9.52,9.52,0,0,0,5.578,6.054c1.386.633,6.3,2.6,7.332,3.039a13.1,13.1,0,0,1,2.772,1.5,3.352,3.352,0,0,1,1.415,2.695,3.577,3.577,0,0,1-1.522,2.82,6.283,6.283,0,0,1-3.711,1.214,10.323,10.323,0,0,1-7.98-3.312l0,0a3.3,3.3,0,1,0-4.87,4.457l0,0a15.806,15.806,0,0,0,9.455,4.956,18.291,18.291,0,0,0,2.826.219,16.086,16.086,0,0,0,8.757-2.429c3.948-2.605,5.611-7.119,4.139-11.23"/>
  </g>
  <rect class="cls-2" width="237.466" height="110.016"/>
  <circle cx="117.693" cy="32.604" r="5.266"/>
</svg>
