<svg id="Layer_1" data-name="Layer 1" xmlns="http://www.w3.org/2000/svg" width="509.27" height="400" viewBox="0 0 509.27 400">
  <defs>
    <style>
      .cls-1, .cls-2, .cls-3 {
        fill: none;
      }

      .cls-1 {
        stroke: #fff100;
      }

      .cls-1, .cls-2 {
        stroke-linecap: round;
        stroke-linejoin: round;
        stroke-width: 17px;
      }

      .cls-2 {
        stroke: #000;
      }
    </style>
  </defs>
  <title>aws_keyline_forklift</title>
  <g>
    <path class="cls-1" d="M379.127,41.118V326.883h88.452"/>
    <path class="cls-1" d="M159.326,326.733H249.5M349.751,231.5,283.945,77.96c-7.751-21.058-37.273-36.767-58.614-36.767h-80.3c-.825-.059-1.66-.09-2.486-.09A34.443,34.443,0,0,0,108.2,78.02V231.5m219.506,0-73.17-73.169M108.049,180.375H71.5c-18.027,0-29.225,14.006-29.225,36.552v14.726l0,73.363a22.279,22.279,0,0,0,21.713,21.715l22.237,0m102.4-95.08H42.272M239.93,172.939l14.6-14.606,14.606-14.606"/>
    <path class="cls-1" d="M409.127,296.883h58.452V238.43H409.127Z"/>
    <path class="cls-1" d="M409.127,121.073h58.452V62.62H409.127Z"/>
    <path class="cls-1" d="M409.127,296.883h58.452V238.43H409.127Zm0-175.81h58.452V62.62H409.127Zm0,87.9h58.452V150.524H409.127Z"/>
  </g>
  <path class="cls-1" d="M298.585,290.257a21.9,21.9,0,1,0,21.9,21.9A21.925,21.925,0,0,0,298.585,290.257Z"/>
  <path class="cls-1" d="M298.585,260.955a51.2,51.2,0,1,0,51.2,51.209A51.261,51.261,0,0,0,298.585,260.955Z"/>
  <path class="cls-1" d="M122.776,319.407a7.4,7.4,0,1,0,7.4,7.4A7.41,7.41,0,0,0,122.776,319.407Z"/>
  <circle class="cls-1" cx="122.775" cy="326.808" r="36.551" transform="translate(-22.858 9.526) rotate(-4.065)"/>
  <path class="cls-1" d="M349.788,312.164V231.653H269.312l-43.928,43.93-36.68.022a.076.076,0,0,1-.076-.075V216.343l-.094-.578a16.092,16.092,0,0,0-13.317-13.32l-.578-.094H152.272a15.846,15.846,0,0,1-14.921-14.92V150.412l-.094-.579a16.1,16.1,0,0,0-13.32-13.316l-.577-.094H108.2"/>
  <line class="cls-2" x1="467.579" y1="326.883" x2="467.579" y2="326.883"/>
  <rect class="cls-3" x="-0.001" width="509.267" height="400"/>
</svg>
