<svg id="Layer_1" data-name="Layer 1" xmlns="http://www.w3.org/2000/svg" width="509.267" height="400" viewBox="0 0 509.267 400">
  <defs>
    <style>
      .cls-1, .cls-2, .cls-3 {
        fill: none;
      }

      .cls-1 {
        stroke: #fff100;
      }

      .cls-1, .cls-2 {
        stroke-linecap: round;
        stroke-linejoin: round;
        stroke-width: 17px;
      }

      .cls-2 {
        stroke: #000000;
      }
    </style>
  </defs>
  <title>aws_web_forklift</title>
  <g>
    <path class="cls-1" d="M379.128,41.118V326.883H467.58"/>
    <path class="cls-1" d="M159.327,326.733H249.5M349.753,231.5,283.946,77.96C276.2,56.9,246.673,41.193,225.332,41.193h-80.3c-.826-.059-1.661-.09-2.486-.09A34.441,34.441,0,0,0,108.2,78.02V231.5m219.505,0-73.169-73.169M108.051,180.375H71.5c-18.026,0-29.225,14.006-29.225,36.552v14.726l0,73.363a22.278,22.278,0,0,0,21.712,21.715l22.237,0m102.4-95.08H42.273m197.658-58.714,14.606-14.606,14.6-14.606"/>
    <path class="cls-1" d="M409.128,296.883H467.58V238.43H409.128Z"/>
    <path class="cls-1" d="M409.128,121.073H467.58V62.62H409.128Z"/>
    <path class="cls-1" d="M409.128,296.883H467.58V238.43H409.128Zm0-175.81H467.58V62.62H409.128Zm0,87.9H467.58V150.524H409.128Z"/>
  </g>
  <path class="cls-1" d="M298.587,290.257a21.9,21.9,0,1,0,21.9,21.9A21.926,21.926,0,0,0,298.587,290.257Z"/>
  <path class="cls-1" d="M298.587,260.955a51.2,51.2,0,1,0,51.2,51.209A51.26,51.26,0,0,0,298.587,260.955Z"/>
  <path class="cls-1" d="M122.777,319.407a7.4,7.4,0,1,0,7.4,7.4A7.409,7.409,0,0,0,122.777,319.407Z"/>
  <circle class="cls-1" cx="122.776" cy="326.808" r="36.551" transform="translate(-22.858 9.526) rotate(-4.065)"/>
  <path class="cls-1" d="M349.789,312.164V231.653H269.313l-43.928,43.93-36.68.022a.076.076,0,0,1-.076-.075V216.343l-.094-.578a16.09,16.09,0,0,0-13.316-13.32l-.579-.094H152.273a15.846,15.846,0,0,1-14.921-14.92V150.412l-.094-.579a16.1,16.1,0,0,0-13.319-13.316l-.578-.094H108.2"/>
  <line class="cls-2" x1="467.58" y1="326.883" x2="467.58" y2="326.883"/>
  <rect class="cls-3" width="509.267" height="400"/>
</svg>
