<svg id="Layer_1" data-name="Layer 1" xmlns="http://www.w3.org/2000/svg" width="509.267" height="400" viewBox="0 0 509.267 400">
  <defs>
    <style>
      .cls-1, .cls-2, .cls-3 {
        fill: none;
      }

      .cls-1 {
        stroke: #fff;
      }

      .cls-1, .cls-2 {
        stroke-linecap: round;
        stroke-linejoin: round;
        stroke-width: 17px;
      }

      .cls-2 {
        stroke: #231f20;
      }
    </style>
  </defs>
  <title>aws_web_sub-reverse</title>
  <g>
    <path class="cls-1" d="M177.048,178.829V67.543a1.635,1.635,0,0,0-1.634-1.634H148.821V37.669h26.593a29.908,29.908,0,0,1,29.874,29.874V178.829"/>
    <path class="cls-1" d="M127.649,362.331a77.635,77.635,0,0,1-77.633-78.224c.317-42.807,35.8-77.047,78.608-77.047H247.772a48.015,48.015,0,0,1,15.184,2.464L402.9,256.173v57.045L262.956,359.867a48.015,48.015,0,0,1-15.184,2.464Z"/>
    <polyline class="cls-1" points="247.63 207.06 247.63 178.829 134.706 178.829 134.706 207.06"/>
    <rect class="cls-1" x="431.133" y="221.175" width="28.231" height="127.039" rx="14.115"/>
    <circle class="cls-1" cx="113.533" cy="284.695" r="21.173"/>
    <circle class="cls-1" cx="198.226" cy="284.695" r="21.173"/>
    <circle class="cls-1" cx="282.92" cy="284.695" r="21.173"/>
    <line class="cls-1" x1="459.364" y1="284.695" x2="402.902" y2="284.695"/>
    <path class="cls-1" d="M49.9,108.264a49.929,49.929,0,0,0,25.425-6.953,49.766,49.766,0,0,1,51.6.031,49.9,49.9,0,0,0,50.757-.035,49.766,49.766,0,0,1,51.6.031,49.9,49.9,0,0,0,50.757-.035,49.764,49.764,0,0,1,51.594.031,49.9,49.9,0,0,0,50.757-.035,49.766,49.766,0,0,1,51.595.031,49.75,49.75,0,0,0,25.331,6.918"/>
    <line class="cls-2" x1="459.31" y1="108.248" x2="459.31" y2="108.248"/>
  </g>
  <rect class="cls-3" width="509.267" height="400"/>
</svg>
