<svg id="Layer_1" data-name="Layer 1" xmlns="http://www.w3.org/2000/svg" width="509.267" height="400" viewBox="0 0 509.267 400">
  <defs>
    <style>
      .cls-1, .cls-2, .cls-3 {
        fill: none;
      }

      .cls-1 {
        stroke: #fff;
      }

      .cls-1, .cls-2 {
        stroke-linecap: round;
        stroke-linejoin: round;
        stroke-width: 17px;
      }

      .cls-2 {
        stroke: #000;
      }
    </style>
  </defs>
  <title>aws_keyline_forklift-reverse</title>
  <g>
    <path class="cls-1" d="M379.13,41.118V326.883h88.452"/>
    <path class="cls-1" d="M159.329,326.733H249.5M349.754,231.5,283.948,77.96C276.2,56.9,246.675,41.193,225.334,41.193h-80.3c-.826-.059-1.661-.09-2.486-.09A34.441,34.441,0,0,0,108.2,78.02V231.5m219.505,0-73.169-73.169M108.052,180.375H71.5c-18.027,0-29.225,14.006-29.225,36.552v14.726l0,73.363a22.279,22.279,0,0,0,21.712,21.715l22.238,0m102.4-95.08H42.275m197.657-58.714,14.606-14.606,14.606-14.606"/>
    <path class="cls-1" d="M409.13,296.883h58.452V238.43H409.13Z"/>
    <path class="cls-1" d="M409.13,121.073h58.452V62.62H409.13Z"/>
    <path class="cls-1" d="M409.13,296.883h58.452V238.43H409.13Zm0-175.81h58.452V62.62H409.13Zm0,87.9h58.452V150.524H409.13Z"/>
  </g>
  <path class="cls-1" d="M298.588,290.257a21.9,21.9,0,1,0,21.9,21.9A21.925,21.925,0,0,0,298.588,290.257Z"/>
  <path class="cls-1" d="M298.588,260.955a51.2,51.2,0,1,0,51.2,51.209A51.261,51.261,0,0,0,298.588,260.955Z"/>
  <path class="cls-1" d="M122.779,319.407a7.4,7.4,0,1,0,7.4,7.4A7.41,7.41,0,0,0,122.779,319.407Z"/>
  <circle class="cls-1" cx="122.778" cy="326.808" r="36.551" transform="translate(-22.858 9.526) rotate(-4.065)"/>
  <path class="cls-1" d="M349.79,312.164V231.653H269.315l-43.929,43.93-36.679.022a.076.076,0,0,0-.076-.076V216.343l-.1-.588a16.1,16.1,0,0,1-13.315-13.31l-.579-.094H152.275a15.846,15.846,0,0,1-14.921-14.92V150.412l-.1-.584a16.108,16.108,0,0,1-13.319-13.311l-.577-.094H108.2"/>
  <line class="cls-2" x1="467.582" y1="326.883" x2="467.582" y2="326.883"/>
  <rect class="cls-3" x="0.001" width="509.267" height="400"/>
</svg>
