<?xml version="1.0" encoding="utf-8"?>
<!-- Generator: Adobe Illustrator 23.0.6, SVG Export Plug-In . SVG Version: 6.00 Build 0)  -->
<svg version="1.1" id="dashboard-indicator-sheet-4"
	 xmlns="http://www.w3.org/2000/svg" xmlns:xlink="http://www.w3.org/1999/xlink" x="0px" y="0px" viewBox="0 0 240 180"
	 style="enable-background:new 0 0 240 180;" xml:space="preserve">
<style type="text/css">
	.st0{clip-path:url(#SVGID_2_);}
	.st1{clip-path:url(#SVGID_4_);}
	.st2{fill:none;}
	.st3{clip-path:url(#SVGID_6_);}
	.st4{clip-path:url(#SVGID_8_);}
	.st5{clip-path:url(#SVGID_10_);}
	.st6{clip-path:url(#SVGID_12_);}
	.st7{clip-path:url(#SVGID_14_);}
	.st8{clip-path:url(#SVGID_16_);}
	.st9{clip-path:url(#SVGID_18_);}
	.st10{clip-path:url(#SVGID_20_);}
	.st11{clip-path:url(#SVGID_22_);}
	.st12{clip-path:url(#SVGID_24_);}
	.st13{clip-path:url(#SVGID_26_);}
	.st14{clip-path:url(#SVGID_28_);}
	.st15{clip-path:url(#SVGID_30_);}
	.st16{clip-path:url(#SVGID_32_);}
	.st17{clip-path:url(#SVGID_34_);}
	.st18{clip-path:url(#SVGID_36_);}
	.st19{clip-path:url(#SVGID_38_);}
	.st20{clip-path:url(#SVGID_40_);}
	.st21{clip-path:url(#SVGID_42_);}
	.st22{fill:none;stroke:#000000;stroke-width:1.5;stroke-miterlimit:10;}
	.st23{clip-path:url(#SVGID_44_);}
	.st24{enable-background:new    ;}
</style>
<g id="Group_65">
	<g>
		<defs>
			<rect id="SVGID_1_" x="60" width="60" height="60"/>
		</defs>
		<clipPath id="SVGID_2_">
			<use xlink:href="#SVGID_1_"  style="overflow:visible;"/>
		</clipPath>
		<g id="icon-dashboard-badge" transform="translate(60)" class="st0">
			<g>
				<defs>
					<rect id="SVGID_3_" width="60" height="60"/>
				</defs>
				<clipPath id="SVGID_4_">
					<use xlink:href="#SVGID_3_"  style="overflow:visible;"/>
				</clipPath>
				<g id="Button_Hotspot" class="st1">
					<rect id="Rectangle_8" class="st2" width="60" height="60"/>
				</g>
			</g>
		</g>
	</g>
	<g>
		<defs>
			<rect id="SVGID_5_" x="120" width="60" height="60"/>
		</defs>
		<clipPath id="SVGID_6_">
			<use xlink:href="#SVGID_5_"  style="overflow:visible;"/>
		</clipPath>
		<g id="icon-dashboard-badge-2" transform="translate(120)" class="st3">
			<g>
				<defs>
					<rect id="SVGID_7_" width="60" height="60"/>
				</defs>
				<clipPath id="SVGID_8_">
					<use xlink:href="#SVGID_7_"  style="overflow:visible;"/>
				</clipPath>
				<g id="Button_Hotspot-2" class="st4">
					<rect id="Rectangle_8-2" class="st2" width="60" height="60"/>
				</g>
			</g>
		</g>
	</g>
	<g>
		<defs>
			<rect id="SVGID_9_" x="180" width="60" height="60"/>
		</defs>
		<clipPath id="SVGID_10_">
			<use xlink:href="#SVGID_9_"  style="overflow:visible;"/>
		</clipPath>
		<g id="icon-dashboard-badge-3" transform="translate(180)" class="st5">
			<g>
				<defs>
					<rect id="SVGID_11_" width="60" height="60"/>
				</defs>
				<clipPath id="SVGID_12_">
					<use xlink:href="#SVGID_11_"  style="overflow:visible;"/>
				</clipPath>
				<g id="Button_Hotspot-3" class="st6">
					<rect id="Rectangle_8-3" class="st2" width="60" height="60"/>
				</g>
			</g>
		</g>
	</g>
	<g>
		<defs>
			<rect id="SVGID_13_" y="60" width="60" height="60"/>
		</defs>
		<clipPath id="SVGID_14_">
			<use xlink:href="#SVGID_13_"  style="overflow:visible;"/>
		</clipPath>
		<g id="icon-dashboard-badge-4" transform="translate(0 60)" class="st7">
			<g>
				<defs>
					<rect id="SVGID_15_" width="60" height="60"/>
				</defs>
				<clipPath id="SVGID_16_">
					<use xlink:href="#SVGID_15_"  style="overflow:visible;"/>
				</clipPath>
				<g id="Button_Hotspot-4" class="st8">
					<rect id="Rectangle_8-4" class="st2" width="60" height="60"/>
				</g>
			</g>
		</g>
	</g>
	<g>
		<defs>
			<rect id="SVGID_17_" x="60" y="60" width="60" height="60"/>
		</defs>
		<clipPath id="SVGID_18_">
			<use xlink:href="#SVGID_17_"  style="overflow:visible;"/>
		</clipPath>
		<g id="icon-dashboard-badge-5" transform="translate(60 60)" class="st9">
			<g>
				<defs>
					<rect id="SVGID_19_" width="60" height="60"/>
				</defs>
				<clipPath id="SVGID_20_">
					<use xlink:href="#SVGID_19_"  style="overflow:visible;"/>
				</clipPath>
				<g id="Button_Hotspot-5" class="st10">
					<rect id="Rectangle_8-5" class="st2" width="60" height="60"/>
				</g>
			</g>
		</g>
	</g>
	<g>
		<defs>
			<rect id="SVGID_21_" x="120" y="60" width="60" height="60"/>
		</defs>
		<clipPath id="SVGID_22_">
			<use xlink:href="#SVGID_21_"  style="overflow:visible;"/>
		</clipPath>
		<g id="icon-dashboard-badge-6" transform="translate(120 60)" class="st11">
			<g>
				<defs>
					<rect id="SVGID_23_" width="60" height="60"/>
				</defs>
				<clipPath id="SVGID_24_">
					<use xlink:href="#SVGID_23_"  style="overflow:visible;"/>
				</clipPath>
				<g id="Button_Hotspot-6" class="st12">
					<rect id="Rectangle_8-6" class="st2" width="60" height="60"/>
				</g>
			</g>
		</g>
	</g>
	<g>
		<defs>
			<rect id="SVGID_25_" x="180" y="60" width="60" height="60"/>
		</defs>
		<clipPath id="SVGID_26_">
			<use xlink:href="#SVGID_25_"  style="overflow:visible;"/>
		</clipPath>
		<g id="icon-dashboard-badge-7" transform="translate(180 60)" class="st13">
			<g>
				<defs>
					<rect id="SVGID_27_" width="60" height="60"/>
				</defs>
				<clipPath id="SVGID_28_">
					<use xlink:href="#SVGID_27_"  style="overflow:visible;"/>
				</clipPath>
				<g id="Button_Hotspot-7" class="st14">
					<rect id="Rectangle_8-7" class="st2" width="60" height="60"/>
				</g>
			</g>
		</g>
	</g>
	<g>
		<defs>
			<rect id="SVGID_29_" y="120" width="60" height="60"/>
		</defs>
		<clipPath id="SVGID_30_">
			<use xlink:href="#SVGID_29_"  style="overflow:visible;"/>
		</clipPath>
		<g id="icon-dashboard-badge-8" transform="translate(0 120)" class="st15">
			<g>
				<defs>
					<rect id="SVGID_31_" width="60" height="60"/>
				</defs>
				<clipPath id="SVGID_32_">
					<use xlink:href="#SVGID_31_"  style="overflow:visible;"/>
				</clipPath>
				<g id="Button_Hotspot-8" class="st16">
					<rect id="Rectangle_8-8" class="st2" width="60" height="60"/>
				</g>
			</g>
		</g>
	</g>
	<g>
		<defs>
			<rect id="SVGID_33_" x="60" y="120" width="60" height="60"/>
		</defs>
		<clipPath id="SVGID_34_">
			<use xlink:href="#SVGID_33_"  style="overflow:visible;"/>
		</clipPath>
		<g id="icon-dashboard-badge-9" transform="translate(60 120)" class="st17">
			<g>
				<defs>
					<rect id="SVGID_35_" width="60" height="60"/>
				</defs>
				<clipPath id="SVGID_36_">
					<use xlink:href="#SVGID_35_"  style="overflow:visible;"/>
				</clipPath>
				<g id="Button_Hotspot-9" class="st18">
					<rect id="Rectangle_8-9" class="st2" width="60" height="60"/>
				</g>
			</g>
		</g>
	</g>
	<g>
		<defs>
			<rect id="SVGID_37_" x="120" y="120" width="60" height="60"/>
		</defs>
		<clipPath id="SVGID_38_">
			<use xlink:href="#SVGID_37_"  style="overflow:visible;"/>
		</clipPath>
		<g id="icon-dashboard-badge-10" transform="translate(120 120)" class="st19">
			<g>
				<defs>
					<rect id="SVGID_39_" width="60" height="60"/>
				</defs>
				<clipPath id="SVGID_40_">
					<use xlink:href="#SVGID_39_"  style="overflow:visible;"/>
				</clipPath>
				<g id="Button_Hotspot-10" class="st20">
					<rect id="Rectangle_8-10" class="st2" width="60" height="60"/>
				</g>
			</g>
		</g>
	</g>
	<g id="icon-dashboard-badge-11">
		<g>
			<defs>
				<rect id="SVGID_41_" width="60" height="60"/>
			</defs>
			<clipPath id="SVGID_42_">
				<use xlink:href="#SVGID_41_"  style="overflow:visible;"/>
			</clipPath>
			<g id="Button_Hotspot-11" class="st21">
				<rect id="Rectangle_8-11" class="st2" width="60" height="60"/>
			</g>
		</g>
		<g id="Group_5-11" transform="translate(12.156 14.415)">
			<g id="Group_4-11" transform="translate(7.05)">
				<path id="Path_2-11_3_" class="st22" d="M15.1,6.3V3.7H-7V20H5.3"/>
				<path id="Path_2-11_2_" class="st22" d="M0,3.7V0h9v3.6"/>
				<path id="Path_2-11_4_" class="st22" d="M75.1,6.3V3.7H53V20h12.3"/>
				<path id="Path_2-11_1_" class="st22" d="M60,3.7V0h9v3.6"/>
				<path id="Path_2-11_6_" class="st22" d="M135.1,6.3V3.7H113V20h12.3"/>
				<path id="Path_2-11_5_" class="st22" d="M120,3.7V0h9v3.6"/>
				<path id="Path_2-11_8_" class="st22" d="M195.1,6.3V3.7H173V20h12.3"/>
				<path id="Path_2-11_7_" class="st22" d="M180,3.7V0h9v3.6"/>
				<path id="Path_2-11_10_" class="st22" d="M195.1,66.3v-2.7H173V80h12.3"/>
				<path id="Path_2-11_9_" class="st22" d="M180,63.7V60h9v3.6"/>
				<path id="Path_2-11_12_" class="st22" d="M135.1,66.3v-2.7H113V80h12.3"/>
				<path id="Path_2-11_11_" class="st22" d="M120,63.7V60h9v3.6"/>
				<path id="Path_2-11_14_" class="st22" d="M75.1,66.3v-2.7H53V80h12.3"/>
				<path id="Path_2-11_13_" class="st22" d="M60,63.7V60h9v3.6"/>
				<path id="Path_2-11_16_" class="st22" d="M15.1,66.3v-2.7H-7V80H5.3"/>
				<path id="Path_2-11_15_" class="st22" d="M0,63.7V60h9v3.6"/>
				<path id="Path_2-11_18_" class="st22" d="M15.1,126.3v-2.7H-7V140H5.3"/>
				<path id="Path_2-11_17_" class="st22" d="M0,123.7V120h9v3.6"/>
				<path id="Path_2-11_20_" class="st22" d="M75.1,126.3v-2.7H53V140h12.3"/>
				<path id="Path_2-11_19_" class="st22" d="M60,123.7V120h9v3.6"/>
				<path id="Path_2-11_22_" class="st22" d="M135.1,126.3v-2.7H113V140h12.3"/>
				<path id="Path_2-11_21_" class="st22" d="M120,123.7V120h9v3.6"/>
				<path id="Path_4-11" class="st22" d="M32,19.2c0,7.4-6,13.3-13.4,13.3c-7.4,0-13.3-6-13.3-13.4c0-7.4,6-13.3,13.4-13.3
					C26,5.9,32,11.9,32,19.2z"/>
				<path id="Path_4-11_1_" class="st22" d="M32,19.2c0,7.4-6,13.3-13.4,13.3c-7.4,0-13.3-6-13.3-13.4c0-7.4,6-13.3,13.4-13.3
					C26,5.9,32,11.9,32,19.2z"/>
				<path id="Path_4-11_2_" class="st22" d="M92,19.2c0,7.4-6,13.3-13.4,13.3c-7.4,0-13.3-6-13.3-13.4c0-7.4,6-13.3,13.4-13.3
					C86,5.9,92,11.9,92,19.2z"/>
				<path id="Path_4-11_3_" class="st22" d="M152,19.2c0,7.4-6,13.3-13.4,13.3c-7.4,0-13.3-6-13.3-13.4c0-7.4,6-13.3,13.4-13.3
					C146,5.9,152,11.9,152,19.2z"/>
				<path id="Path_4-11_4_" class="st22" d="M212,19.2c0,7.4-6,13.3-13.4,13.3c-7.4,0-13.3-6-13.3-13.4c0-7.4,6-13.3,13.4-13.3
					C206,5.9,212,11.9,212,19.2z"/>
				<path id="Path_4-11_8_" class="st22" d="M32,79.2c0,7.4-6,13.3-13.4,13.3c-7.4,0-13.3-6-13.3-13.4c0-7.4,6-13.3,13.4-13.3
					C26,65.9,32,71.9,32,79.2z"/>
				<path id="Path_4-11_7_" class="st22" d="M92,79.2c0,7.4-6,13.3-13.4,13.3c-7.4,0-13.3-6-13.3-13.4c0-7.4,6-13.3,13.4-13.3
					C86,65.9,92,71.9,92,79.2z"/>
				<path id="Path_4-11_6_" class="st22" d="M152,79.2c0,7.4-6,13.3-13.4,13.3c-7.4,0-13.3-6-13.3-13.4c0-7.4,6-13.3,13.4-13.3
					C146,65.9,152,71.9,152,79.2z"/>
				<path id="Path_4-11_5_" class="st22" d="M212,79.2c0,7.4-6,13.3-13.4,13.3c-7.4,0-13.3-6-13.3-13.4c0-7.4,6-13.3,13.4-13.3
					C206,65.9,212,71.9,212,79.2z"/>
				<path id="Path_4-11_12_" class="st22" d="M32,139.2c0,7.4-6,13.3-13.4,13.3c-7.4,0-13.3-6-13.3-13.4c0-7.4,6-13.3,13.4-13.3
					C26,125.9,32,131.9,32,139.2z"/>
				<path id="Path_4-11_11_" class="st22" d="M92,139.2c0,7.4-6,13.3-13.4,13.3c-7.4,0-13.3-6-13.3-13.4c0-7.4,6-13.3,13.4-13.3
					C86,125.9,92,131.9,92,139.2z"/>
				<path id="Path_4-11_10_" class="st22" d="M152,139.2c0,7.4-6,13.3-13.4,13.3c-7.4,0-13.3-6-13.3-13.4c0-7.4,6-13.3,13.4-13.3
					C146,125.9,152,131.9,152,139.2z"/>
			</g>
		</g>
	</g>
	<g>
		<defs>
			<rect id="SVGID_43_" x="180" y="120" width="60" height="60"/>
		</defs>
		<clipPath id="SVGID_44_">
			<use xlink:href="#SVGID_43_"  style="overflow:visible;"/>
		</clipPath>
		<g id="icon-dashboard" transform="translate(180 120)" class="st23">
			<rect id="Rectangle_8-12" class="st2" width="60" height="60"/>
			<g id="Group_64" transform="translate(-179 -1)">
				<g id="Group_64-2" transform="translate(-77.621 -397.22)">
					<path id="Rectangle_3-12" class="st22" d="M272.6,439.5l0-20.3h27.5l0,20.3H272.6z"/>
					<path id="Path_2-12" class="st22" d="M281.5,419.2l0-4h10l0,4"/>
					<path id="Path_17" class="st22" d="M288.3,425.2l0,3.7h-3.7l0-3.7L288.3,425.2z"/>
				</g>
				<path id="Path_18" class="st22" d="M195.1,27.8c3.9,1.1,7.8,1.8,11.8,2"/>
				<path id="Path_18-2" class="st22" d="M210.7,29.8c4-0.2,8-0.8,11.8-2"/>
			</g>
		</g>
	</g>
</g>
<g id="Group_67">
	<g class="st24">
		<path d="M97.8,27c0.3-0.1,0.5-0.3,0.7-0.3h0c0.4,0,0.7,0.3,0.7,0.7v12.2c0,0.6-0.5,1.1-1.1,1.1c-0.6,0-1-0.5-1-1.1v-9.9l-1.2,0.6
			c-0.5,0.3-1,0-1.2-0.5c-0.2-0.4,0-1.1,0.5-1.4L97.8,27z"/>
	</g>
	<g class="st24">
		<path d="M37.5,26.6c4,0,5,3.2,5,7.1c0,3.9-1,7-5,7s-5-3.1-5-7C32.5,29.8,33.5,26.6,37.5,26.6z M37.5,38.6c2.3,0,2.9-2.2,2.9-4.9
			c0-2.7-0.6-4.9-2.9-4.9c-2.3,0-2.9,2.2-2.9,4.9C34.6,36.4,35.2,38.6,37.5,38.6z"/>
	</g>
	<g class="st24">
		<path d="M97.6,98.6c2.1,0,3.1-1.2,3.1-2.6c0-1.7-1.3-2.5-2.8-2.5c-1.1,0-2,0.2-3.2,1.1c-0.3,0.2-0.7,0.2-1-0.1
			c-0.3-0.2-0.4-0.5-0.3-1l1-5.9c0.1-0.5,0.5-0.9,1-0.9h5.7c0.6,0,1,0.5,1,1c0,0.6-0.5,1.1-1,1.1h-4.9l-0.6,3.6
			c0.6-0.5,1.7-0.9,2.6-0.9c2.5,0,4.6,1.6,4.6,4.5c0,2.8-2.1,4.7-5.3,4.7c-1.6,0-3.1-0.8-4.1-2.1c-0.4-0.5-0.3-1.1,0.3-1.5
			c0.4-0.3,1.1-0.1,1.4,0.3C95.8,98.1,96.5,98.6,97.6,98.6z"/>
	</g>
	<g class="st24">
		<path d="M94.2,157.6c0.5-0.4,1.2-0.2,1.5,0.2c0.4,0.5,1,0.9,1.8,0.9c1.9,0,3.2-2.2,3-4.8c-0.5,1.2-1.5,1.7-2.9,1.7
			c-2.5,0-4.3-1.9-4.3-4.6c0.1-2.5,2.1-4.4,4.7-4.4c2.5,0,4.3,1.8,4.5,4.7c0.3,4.3-0.3,9.5-5.1,9.4c-1.3,0-2.5-0.4-3.5-1.7
			C93.6,158.5,93.7,157.9,94.2,157.6z M97.7,153.6c1.3,0,2.5-1,2.5-2.3c0-1.4-1.1-2.5-2.4-2.5c-1.3-0.1-2.4,1-2.4,2.3
			C95.4,152.4,96.4,153.5,97.7,153.6z"/>
	</g>
	<g class="st24">
		<path d="M38.3,87.4c0.3-0.4,0.5-0.7,1.1-0.7c0.6,0,1.1,0.5,1.1,1.1v7.9h1c0.5,0,1,0.4,1,1c0,0.5-0.4,0.9-1,0.9h-1v1.9
			c0,0.6-0.5,1.1-1.1,1.1c-0.6,0-1-0.5-1-1.1v-1.9h-5.2c-0.5,0-0.9-0.4-0.9-0.9c0-0.3,0.1-0.6,0.3-0.9L38.3,87.4z M38.4,95.7v-5.4
			l-3.6,5.4H38.4z"/>
	</g>
	<g class="st24">
		<path d="M37.5,146.6c2.2,0,3.8,1.6,3.8,3.6c0,1-0.4,1.8-1.1,2.4c1.3,0.8,2.1,2.1,2.1,3.6c0,2.5-2.1,4.6-4.9,4.6
			c-2.7,0-4.9-2-4.9-4.6c0-1.5,0.8-2.8,2.1-3.6c-0.6-0.6-1-1.4-1-2.4C33.7,148.2,35.3,146.6,37.5,146.6z M37.5,158.6
			c1.5,0,2.7-1.1,2.7-2.5c0-1.3-1.1-2.5-2.6-2.5h-0.2c-1.4,0-2.5,1.2-2.5,2.5C34.8,157.5,36,158.6,37.5,158.6z M37.5,151.8
			c1,0,1.7-0.7,1.7-1.6c0-0.8-0.7-1.5-1.7-1.5s-1.7,0.7-1.7,1.5C35.8,151.1,36.5,151.8,37.5,151.8z"/>
	</g>
	<g class="st24">
		<path d="M158.6,32.8c0.6-0.7,0.9-1.4,0.9-2.1c0-1.2-1-2-2.3-2c-0.9,0-1.7,0.5-2.2,1.4c-0.3,0.5-0.6,0.8-1.3,0.6
			c-0.6-0.2-0.8-0.9-0.6-1.4c0.7-1.7,2.2-2.7,4.1-2.7c2.4,0,4.4,1.7,4.4,4.1c0,1.3-0.6,2.5-1.5,3.5c-1.6,1.8-1.9,2.2-3.6,4.2h4.2
			c0.6,0,1,0.5,1,1.1c0,0.6-0.5,1-1,1h-7.1c-0.4,0-0.8-0.3-0.8-0.7c0-0.3,0.2-0.5,0.4-0.7L158.6,32.8z"/>
	</g>
	<g class="st24">
		<path d="M161.3,89.7c-0.5,0.4-1.2,0.2-1.5-0.2c-0.4-0.5-1-0.9-1.8-0.9c-1.9,0-3.2,2.2-3,4.8c0.4-0.8,1.5-1.6,2.9-1.6
			c2.5,0,4.3,1.7,4.3,4.5c-0.1,2.5-1.9,4.4-4.7,4.4c-2.5,0-4.3-1.8-4.5-4.7c-0.3-4.3,0.3-9.5,5.1-9.4c1.3,0,2.5,0.4,3.5,1.7
			C161.9,88.8,161.8,89.4,161.3,89.7z M157.8,93.9c-1.3,0-2.5,0.9-2.5,2.2c0,1.4,1.1,2.5,2.4,2.5c1.6,0,2.4-1,2.4-2.3
			C160.1,94.9,159.1,93.9,157.8,93.9z"/>
	</g>
	<g class="st24">
		<path d="M150.7,157.6c0.5-0.4,1.2-0.2,1.5,0.2c0.4,0.5,1,0.9,1.8,0.9c1.9,0,3.2-2.2,3-4.8c-0.5,1.2-1.5,1.7-2.9,1.7
			c-2.5,0-4.3-1.9-4.3-4.6c0.1-2.5,2.1-4.4,4.7-4.4c2.5,0,4.3,1.8,4.5,4.7c0.3,4.3-0.3,9.5-5.1,9.4c-1.3,0-2.5-0.4-3.5-1.7
			C150.1,158.5,150.2,157.9,150.7,157.6z M154.2,153.6c1.3,0,2.5-1,2.5-2.3c0-1.4-1.1-2.5-2.4-2.5c-1.3-0.1-2.4,1-2.4,2.3
			C151.9,152.4,152.9,153.5,154.2,153.6z"/>
	</g>
	<g class="st24">
		<path d="M165.3,156.3c0,0.5-0.4,0.8-0.9,0.8c-0.5,0-0.8-0.4-0.8-0.8v-2.1h-2.1c-0.5,0-0.8-0.4-0.8-0.8c0-0.5,0.4-0.9,0.8-0.9h2.1
			v-2.1c0-0.5,0.4-0.8,0.8-0.8c0.5,0,0.9,0.4,0.9,0.8v2.1h2.1c0.5,0,0.8,0.4,0.8,0.9c0,0.5-0.4,0.8-0.8,0.8h-2.1V156.3z"/>
	</g>
	<g class="st24">
		<path d="M213.8,37.4c0.5-0.4,1.1-0.3,1.6,0.3c0.5,0.6,1.3,1,2.1,1c1.7,0,2.6-0.9,2.6-2.1c0-1.1-0.8-2.3-2.5-2.3h-0.5
			c-0.5,0-1-0.4-1-1c0-0.5,0.5-1,1-1h0.5c1.1,0,1.6-0.9,1.8-1.5c0.1-0.6-0.1-1.4-1-1.8c-0.3-0.1-0.6-0.1-0.9-0.1
			c-0.6,0-1.1,0.3-1.4,0.5c-0.4,0.3-1.1,0.4-1.5,0c-0.4-0.4-0.4-1.1,0-1.5c0.9-0.8,2-1.2,3.3-1.2c2.3,0.1,3.9,1.8,3.9,3.8
			c0,1.1-0.7,2.1-1.7,2.7c1.4,0.5,2.2,2.1,2.2,3.6c0,2.5-2.1,4-4.8,4c-1.7,0-3-0.8-3.9-1.8C213.3,38.4,213.4,37.7,213.8,37.4z"/>
	</g>
	<g class="st24">
		<path d="M216.4,100c-0.3,0.5-0.9,0.8-1.5,0.5c-0.5-0.3-0.7-0.9-0.4-1.4l5.4-10.2h-5.2c-0.6,0-1-0.5-1-1.1c0-0.6,0.5-1,1-1h7.2
			c0.5,0,0.9,0.3,0.9,0.8c0,0.3-0.1,0.6-0.3,0.8L216.4,100z"/>
	</g>
</g>
</svg>
