<svg id="Layer_1" data-name="Layer 1" xmlns="http://www.w3.org/2000/svg" width="294.5" height="79" viewBox="0 0 294.5 79">
  <defs>
    <style>
      .cls-1, .cls-10, .cls-4, .cls-5, .cls-6, .cls-7, .cls-8, .cls-9 {
        fill: none;
      }

      .cls-2 {
        fill: #009595;
      }

      .cls-3 {
        fill: #005570;
      }

      .cls-10, .cls-4, .cls-5, .cls-6, .cls-7, .cls-8, .cls-9 {
        stroke: #005570;
      }

      .cls-4, .cls-7 {
        stroke-linejoin: round;
      }

      .cls-10, .cls-4, .cls-6 {
        stroke-width: 1.5px;
      }

      .cls-10, .cls-5, .cls-6, .cls-8, .cls-9 {
        stroke-miterlimit: 10;
      }

      .cls-5 {
        stroke-width: 2px;
      }

      .cls-10, .cls-7, .cls-9 {
        stroke-linecap: round;
      }

      .cls-8 {
        stroke-width: 1.375px;
      }

      .cls-9 {
        stroke-width: 2.25px;
      }
    </style>
  </defs>
  <title>horizontal</title>
  <rect class="cls-1" width="294.5" height="79"/>
  <path class="cls-1" d="M60.923,43.307l-.094-.045a52.936,52.936,0,0,0-5.282-2.08l-.277-.1c-.715-.248-1.428-.5-2.132-.754-.2-.072-.393-.147-.59-.223a.846.846,0,0,1-.441-1.2A27.282,27.282,0,0,0,55.331,27.55a28.746,28.746,0,0,0-.514-8.115,15.748,15.748,0,0,0-2.889-6.861,9.176,9.176,0,0,0-.739-.8,7.049,7.049,0,0,0-1.834-1.289c-1.4-.66-2.964-.828-4.365-1.478a11.531,11.531,0,0,0-4.406-.89,18.722,18.722,0,0,0-6.479.947c-6.283,2.152-10.046,7.4-9.82,13.7.181,4.935.522,9.861,2.592,14.418q.4.881.874,1.724a.846.846,0,0,1-.436,1.2c-.2.078-.395.155-.59.228-.665.244-1.334.476-2,.709l-.355.124a53.04,53.04,0,0,0-5.335,2.1l-.094.045a11.779,11.779,0,0,0-6.594,10.742c0,6.127,7.489,15.848,27.586,15.848s27.586-9.72,27.585-15.762A11.81,11.81,0,0,0,60.923,43.307Z"/>
  <path class="cls-2" d="M33.12,44.725c.03.142.056.284.079.423.013.079.025.158.037.237.182,1.182.452,2.356.589,3.544a19.652,19.652,0,0,0,2.768,8.442l3.337,5.8,3.338-5.8a19.67,19.67,0,0,0,2.768-8.442c.137-1.188.407-2.362.588-3.544.012-.079.025-.158.037-.237.023-.139.05-.281.08-.423L39.93,47.278Z"/>
  <g>
    <path class="cls-3" d="M89.058,20.554H75.931V58.482H88.2q9.472-.006,14.7-5.137t5.227-14.632q0-8.821-4.968-13.491T89.058,20.554ZM95.31,47.365q-2.18,2.712-6.848,2.711H86.179V28.83h2.983q4.2,0,6.265,2.516t2.063,7.73Q97.489,44.655,95.31,47.365Z"/>
    <path class="cls-3" d="M140.736,31.761q0-11.208-15.462-11.207H112.848V58.48H123.1V44.68l2.589.006,7.418,13.8h11.528L134.3,41.961Q140.736,38.352,140.736,31.761ZM125.02,36.98H123.1V28.316h2.023q5.266,0,5.267,3.917Q130.39,36.979,125.02,36.98Z"/>
    <path class="cls-3" d="M187.725,38.614v-.26a7.288,7.288,0,0,0,4.307-2.905A9.037,9.037,0,0,0,193.666,30a7.782,7.782,0,0,0-3.748-7.147q-3.748-2.3-11.48-2.3H165.207V58.479h14.762q6.692,0,10.571-2.971a9.686,9.686,0,0,0,3.879-8.127,9.4,9.4,0,0,0-1.583-5.654A8.828,8.828,0,0,0,187.725,38.614Zm-12.27-10.306h2.879q4.825,0,4.825,3.192a3.165,3.165,0,0,1-1.206,2.7,5.589,5.589,0,0,1-3.411.908h-3.087Zm3.6,22.265h-3.6V42.608h3.393a5.9,5.9,0,0,1,3.723,1.012,3.482,3.482,0,0,1,1.284,2.9Q183.855,50.573,179.055,50.573Z"/>
    <rect class="cls-3" x="200.5" y="20.554" width="10.3" height="37.928"/>
    <polygon class="cls-3" points="228.238 20.554 217.99 20.554 217.99 58.482 242.844 58.483 242.844 50.208 228.238 50.208 228.238 20.554"/>
    <polygon class="cls-3" points="259.4 50.208 259.4 20.554 249.15 20.554 249.15 58.482 274 58.483 274 50.208 259.4 50.208"/>
    <circle class="cls-3" cx="152.848" cy="54.162" r="4.992"/>
  </g>
  <path class="cls-4" d="M39.93,63.172l3.338-5.8a19.67,19.67,0,0,0,2.768-8.442c.137-1.188.407-2.362.588-3.544.012-.079.025-.158.037-.237a3.12,3.12,0,0,1,.747-1.812,1.744,1.744,0,0,1,1.983-.255c.792.325,1.583.651,2.388.947.821.3,1.648.585,2.475.873a48.935,48.935,0,0,1,4.937,1.941,7.837,7.837,0,0,1,4.388,7.207c0,4.164-6.25,11.909-23.649,11.909s-23.649-7.746-23.649-11.91a7.835,7.835,0,0,1,4.389-7.207A48.842,48.842,0,0,1,25.607,44.9c.826-.288,1.654-.572,2.475-.873q.5-.189,1-.386.7-.276,1.386-.561a1.746,1.746,0,0,1,1.984.255,3.118,3.118,0,0,1,.747,1.812c.013.079.025.158.038.237.181,1.182.451,2.356.588,3.544a19.652,19.652,0,0,0,2.768,8.442Z"/>
  <line class="cls-5" x1="53.592" y1="51.798" x2="53.592" y2="58.482"/>
  <line class="cls-5" x1="50.11" y1="55" x2="57.074" y2="55"/>
  <path class="cls-3" d="M40.486,11.3a15.5,15.5,0,0,0-5.347.777c-4.72,1.617-7.855,5.367-7.668,10.565.37,10.317,1.134,2.39,3.763,2.39s15.573-.851,15.573-8.585C46.807,12.708,43.666,11.423,40.486,11.3Z"/>
  <path class="cls-3" d="M45.988,13.044c2.714-.378,4.4,2.255,5.333,5.414a22.019,22.019,0,0,1,.919,6.12,1.714,1.714,0,0,1-1.5,1.9c-.043,0-.087.009-.13.011a1.772,1.772,0,0,1-.5-.086c-1.482-.448-2.587-2.236-3.435-3.451-1.381-1.978-2.7-4.014-2.745-6.446C43.9,14.831,44.565,13.243,45.988,13.044Z"/>
  <path class="cls-6" d="M51.506,24.578c0,6.293-1.594,10.912-3.838,13.959s-5.137,4.519-7.738,4.519-5.494-1.473-7.738-4.519-3.837-7.666-3.837-13.959"/>
  <g>
    <rect class="cls-7" x="32.097" y="27.861" width="6.665" height="3.841" rx="0.841"/>
    <rect class="cls-7" x="41.1" y="27.861" width="6.665" height="3.841" rx="0.841"/>
    <path class="cls-7" d="M38.847,29.071a2.987,2.987,0,0,1,2.166,0"/>
  </g>
  <g>
    <path class="cls-8" d="M28.635,58.482c.2.051.4.117.6.182a3.511,3.511,0,0,0,1.392.254,1.5,1.5,0,0,0,1.131-.661,3.309,3.309,0,0,0,.419-1.519,9.564,9.564,0,0,0-.126-2A9.818,9.818,0,0,0,29.7,49.3c-1.486-1.578-3.535-2.346-5.4-.982A7.4,7.4,0,0,0,21.652,52.5a11.97,11.97,0,0,0-.352,2.981,9.647,9.647,0,0,0,.149,2,3.315,3.315,0,0,0,.623,1.447,1.5,1.5,0,0,0,1.212.5,3.513,3.513,0,0,0,1.343-.442c.188-.092.375-.184.569-.262"/>
    <path class="cls-9" d="M24.668,58.959c.171-.083.342-.168.519-.239"/>
    <path class="cls-9" d="M29.182,58.648c-.181-.059-.362-.119-.547-.166"/>
  </g>
  <path class="cls-7" d="M28.556,28.24l.438-.16a3.244,3.244,0,0,1,1.41.072l1.705.408"/>
  <path class="cls-7" d="M51.305,28.24l-.438-.16a3.244,3.244,0,0,0-1.41.072l-1.7.408"/>
  <path class="cls-10" d="M29.083,43.642c-.309.122-.615.254-.913.4a3.8,3.8,0,0,0-.834.487,3.717,3.717,0,0,0-.573.653,3.129,3.129,0,0,0-.446,1.153,8.07,8.07,0,0,0-.126,1.131"/>
</svg>
