<svg id="Layer_1" data-name="Layer 1" xmlns="http://www.w3.org/2000/svg" width="294.5" height="79" viewBox="0 0 294.5 79">
  <defs>
    <style>
      .cls-1, .cls-10, .cls-11, .cls-4, .cls-5, .cls-7, .cls-8, .cls-9 {
        fill: none;
      }

      .cls-2 {
        fill: #fff;
      }

      .cls-3 {
        fill: #009595;
      }

      .cls-10, .cls-11, .cls-4, .cls-5, .cls-7, .cls-8, .cls-9 {
        stroke: #005570;
      }

      .cls-4, .cls-8 {
        stroke-linejoin: round;
      }

      .cls-11, .cls-4, .cls-7 {
        stroke-width: 1.5px;
      }

      .cls-10, .cls-11, .cls-5, .cls-7, .cls-9 {
        stroke-miterlimit: 10;
      }

      .cls-5 {
        stroke-width: 2px;
      }

      .cls-6 {
        fill: #005570;
      }

      .cls-10, .cls-11, .cls-8 {
        stroke-linecap: round;
      }

      .cls-9 {
        stroke-width: 1.375px;
      }

      .cls-10 {
        stroke-width: 2.25px;
      }
    </style>
  </defs>
  <title>horizontal_reverse</title>
  <rect class="cls-1" width="294.5" height="79"/>
  <g>
    <path class="cls-2" d="M89.058,20.534H75.931V58.462H88.2q9.472,0,14.7-5.137t5.227-14.632q0-8.821-4.968-13.49T89.058,20.534ZM95.31,47.346q-2.18,2.711-6.848,2.711H86.179V28.81h2.983q4.2,0,6.265,2.516t2.063,7.731Q97.489,44.636,95.31,47.346Z"/>
    <path class="cls-2" d="M140.736,31.741q0-11.206-15.462-11.207H112.848V58.46H123.1V44.66l2.589.006,7.418,13.8h11.528L134.3,41.941Q140.736,38.332,140.736,31.741ZM125.02,36.96H123.1V28.3h2.023q5.266,0,5.267,3.917Q130.39,36.96,125.02,36.96Z"/>
    <path class="cls-2" d="M187.725,38.594v-.26a7.283,7.283,0,0,0,4.307-2.905,9.035,9.035,0,0,0,1.634-5.448,7.783,7.783,0,0,0-3.748-7.147q-3.748-2.3-11.48-2.3H165.207V58.459h14.762q6.692,0,10.571-2.971a9.682,9.682,0,0,0,3.879-8.126,9.4,9.4,0,0,0-1.583-5.655A8.828,8.828,0,0,0,187.725,38.594Zm-12.27-10.3h2.879q4.825,0,4.825,3.191a3.164,3.164,0,0,1-1.206,2.7,5.582,5.582,0,0,1-3.411.908h-3.087Zm3.6,22.264h-3.6V42.588h3.393a5.91,5.91,0,0,1,3.723,1.012,3.485,3.485,0,0,1,1.284,2.905Q183.855,50.554,179.055,50.553Z"/>
    <rect class="cls-2" x="200.5" y="20.534" width="10.3" height="37.928"/>
    <polygon class="cls-2" points="228.238 20.534 217.99 20.534 217.99 58.462 242.844 58.463 242.844 50.188 228.238 50.188 228.238 20.534"/>
    <polygon class="cls-2" points="259.4 50.188 259.4 20.534 249.15 20.534 249.15 58.462 274 58.463 274 50.188 259.4 50.188"/>
    <circle class="cls-2" cx="152.848" cy="54.143" r="4.992"/>
  </g>
  <path class="cls-2" d="M60.924,43.359l-.094-.045a53.031,53.031,0,0,0-5.282-2.08l-.277-.1c-.715-.248-1.428-.5-2.132-.754-.2-.072-.393-.147-.59-.223a.846.846,0,0,1-.441-1.2A27.286,27.286,0,0,0,55.332,27.6a28.746,28.746,0,0,0-.514-8.115,15.748,15.748,0,0,0-2.889-6.861,9.033,9.033,0,0,0-.74-.8,7.044,7.044,0,0,0-1.833-1.289c-1.4-.66-2.964-.828-4.365-1.478a11.531,11.531,0,0,0-4.406-.89,18.719,18.719,0,0,0-6.479.947c-6.283,2.152-10.046,7.4-9.82,13.7.181,4.935.522,9.861,2.591,14.418q.4.881.875,1.724a.846.846,0,0,1-.436,1.2c-.2.078-.395.155-.59.227-.665.245-1.334.477-2,.709l-.355.124a53.191,53.191,0,0,0-5.335,2.1l-.094.045A11.779,11.779,0,0,0,12.345,54.1c0,6.127,7.489,15.848,27.585,15.848s27.587-9.72,27.586-15.762A11.81,11.81,0,0,0,60.924,43.359Z"/>
  <path class="cls-3" d="M33.121,44.776c.03.142.056.284.079.423.013.079.025.158.037.237.182,1.182.452,2.356.589,3.544a19.643,19.643,0,0,0,2.768,8.442l3.337,5.8,3.338-5.8a19.675,19.675,0,0,0,2.768-8.442c.137-1.188.407-2.362.588-3.544.012-.079.025-.158.037-.237.023-.139.05-.281.08-.423l-6.811,2.553Z"/>
  <path class="cls-4" d="M39.931,63.223l3.338-5.8a19.675,19.675,0,0,0,2.768-8.442c.137-1.188.407-2.362.588-3.544.012-.079.025-.158.037-.237a3.126,3.126,0,0,1,.747-1.812,1.747,1.747,0,0,1,1.983-.255c.792.325,1.583.651,2.388.947.821.3,1.648.585,2.475.873a49.414,49.414,0,0,1,4.937,1.941A7.839,7.839,0,0,1,63.58,54.1c0,4.164-6.25,11.909-23.649,11.909S16.282,58.264,16.282,54.1a7.837,7.837,0,0,1,4.389-7.207,49.224,49.224,0,0,1,4.937-1.941c.826-.288,1.654-.572,2.475-.873q.5-.187,1-.385.7-.276,1.386-.562a1.749,1.749,0,0,1,1.984.255A3.123,3.123,0,0,1,33.2,45.2c.013.079.025.158.038.237.181,1.182.451,2.356.588,3.544A19.643,19.643,0,0,0,36.6,57.422Z"/>
  <line class="cls-5" x1="53.593" y1="51.849" x2="53.593" y2="58.533"/>
  <line class="cls-5" x1="50.111" y1="55.051" x2="57.075" y2="55.051"/>
  <path class="cls-6" d="M40.487,11.354a15.55,15.55,0,0,0-5.347.777C30.42,13.748,27.285,17.5,27.472,22.7c.37,10.317,1.134,2.39,3.763,2.39s15.573-.851,15.573-8.585C46.808,12.759,43.667,11.474,40.487,11.354Z"/>
  <path class="cls-6" d="M45.989,13.1c2.714-.378,4.4,2.255,5.333,5.414a22.03,22.03,0,0,1,.919,6.12,1.714,1.714,0,0,1-1.5,1.9c-.043,0-.087.009-.13.01a1.737,1.737,0,0,1-.5-.086c-1.482-.448-2.587-2.236-3.435-3.451-1.381-1.978-2.7-4.014-2.745-6.446C43.9,14.882,44.566,13.294,45.989,13.1Z"/>
  <path class="cls-7" d="M51.507,24.629c0,6.293-1.594,10.912-3.838,13.959s-5.137,4.519-7.738,4.519-5.494-1.473-7.738-4.519-3.837-7.666-3.837-13.959"/>
  <g>
    <rect class="cls-8" x="32.098" y="27.912" width="6.665" height="3.841" rx="0.841"/>
    <rect class="cls-8" x="41.101" y="27.912" width="6.665" height="3.841" rx="0.841"/>
    <path class="cls-8" d="M38.848,29.122a2.987,2.987,0,0,1,2.166,0"/>
  </g>
  <g>
    <path class="cls-9" d="M28.636,58.533c.2.051.4.117.6.182a3.473,3.473,0,0,0,1.392.254,1.5,1.5,0,0,0,1.131-.661,3.3,3.3,0,0,0,.419-1.519,9.572,9.572,0,0,0-.126-2A9.824,9.824,0,0,0,29.7,49.35c-1.486-1.578-3.535-2.346-5.4-.982a7.4,7.4,0,0,0-2.648,4.184,11.981,11.981,0,0,0-.352,2.981,9.642,9.642,0,0,0,.149,2,3.305,3.305,0,0,0,.623,1.447,1.5,1.5,0,0,0,1.212.5,3.479,3.479,0,0,0,1.343-.442c.188-.092.375-.184.569-.262"/>
    <path class="cls-10" d="M24.669,59.01c.171-.083.342-.168.519-.239"/>
    <path class="cls-10" d="M29.183,58.7c-.181-.059-.362-.119-.547-.166"/>
  </g>
  <path class="cls-8" d="M28.557,28.291l.438-.16a3.275,3.275,0,0,1,1.41.072l1.7.408"/>
  <path class="cls-8" d="M51.306,28.291l-.438-.16a3.275,3.275,0,0,0-1.41.072l-1.7.408"/>
  <path class="cls-11" d="M29.084,43.694c-.309.122-.615.254-.913.4a3.778,3.778,0,0,0-.834.487,3.681,3.681,0,0,0-.573.653,3.115,3.115,0,0,0-.446,1.153,8.07,8.07,0,0,0-.126,1.131"/>
</svg>
