<svg id="Layer_1" data-name="Layer 1" xmlns="http://www.w3.org/2000/svg" width="159.378" height="121.746" viewBox="0 0 159.378 121.746">
  <defs>
    <style>
      .cls-1 {
        fill: #fff;
      }

      .cls-2 {
        fill: #009595;
      }

      .cls-10, .cls-11, .cls-3, .cls-4, .cls-6, .cls-7, .cls-8, .cls-9 {
        fill: none;
      }

      .cls-10, .cls-3, .cls-4, .cls-6, .cls-7, .cls-8, .cls-9 {
        stroke: #005570;
      }

      .cls-3, .cls-7 {
        stroke-linejoin: round;
      }

      .cls-10, .cls-3, .cls-6 {
        stroke-width: 1.62px;
      }

      .cls-10, .cls-4, .cls-6, .cls-8, .cls-9 {
        stroke-miterlimit: 10;
      }

      .cls-4 {
        stroke-width: 2.16px;
      }

      .cls-5 {
        fill: #005570;
      }

      .cls-10, .cls-7, .cls-9 {
        stroke-linecap: round;
      }

      .cls-7 {
        stroke-width: 1.08px;
      }

      .cls-8 {
        stroke-width: 1.485px;
      }

      .cls-9 {
        stroke-width: 2.43px;
      }
    </style>
  </defs>
  <title>square_reverse</title>
  <path class="cls-1" d="M103.028,48.233l-.1-.049a57.321,57.321,0,0,0-5.7-2.246l-.3-.1c-.772-.268-1.543-.536-2.3-.814-.213-.078-.425-.159-.638-.242a.913.913,0,0,1-.477-1.3,29.465,29.465,0,0,0,3.483-12.266,31.1,31.1,0,0,0-.555-8.764,17,17,0,0,0-3.121-7.41,9.885,9.885,0,0,0-.8-.864,7.6,7.6,0,0,0-1.98-1.392c-1.508-.713-3.2-.894-4.715-1.6a12.435,12.435,0,0,0-4.758-.962,20.216,20.216,0,0,0-7,1.023c-6.786,2.324-10.85,7.992-10.606,14.792.2,5.329.564,10.649,2.8,15.571q.432.951.944,1.862a.913.913,0,0,1-.471,1.3q-.321.127-.636.246c-.719.263-1.441.514-2.164.765l-.383.134a57.53,57.53,0,0,0-5.762,2.265l-.1.049a12.724,12.724,0,0,0-7.123,11.6c0,6.617,8.089,17.115,29.793,17.115s29.794-10.5,29.793-17.023A12.758,12.758,0,0,0,103.028,48.233Z"/>
  <path class="cls-2" d="M73,49.764c.032.154.06.307.085.457.014.085.027.171.04.256.2,1.277.488,2.545.636,3.828a21.224,21.224,0,0,0,2.99,9.117l3.6,6.264,3.605-6.264a21.25,21.25,0,0,0,2.989-9.117c.148-1.283.44-2.551.635-3.828.013-.085.027-.171.04-.256.025-.15.054-.3.086-.457l-7.355,2.758Z"/>
  <path class="cls-3" d="M80.356,69.687l3.605-6.264a21.25,21.25,0,0,0,2.989-9.117c.148-1.283.44-2.551.635-3.828.013-.085.027-.17.04-.256a3.374,3.374,0,0,1,.807-1.957,1.883,1.883,0,0,1,2.141-.275c.856.351,1.71.7,2.579,1.023.887.324,1.78.631,2.673.942a53.031,53.031,0,0,1,5.332,2.1,8.463,8.463,0,0,1,4.739,7.783c0,4.5-6.75,12.862-25.54,12.862S54.815,64.331,54.815,59.834a8.463,8.463,0,0,1,4.74-7.783,52.793,52.793,0,0,1,5.332-2.1c.892-.311,1.786-.617,2.673-.942q.54-.2,1.081-.417c.5-.2,1-.4,1.5-.606a1.885,1.885,0,0,1,2.142.275,3.361,3.361,0,0,1,.807,1.957c.014.085.027.171.041.256.2,1.277.487,2.545.635,3.828a21.224,21.224,0,0,0,2.99,9.117Z"/>
  <line class="cls-4" x1="95.11" y1="57.403" x2="95.11" y2="64.622"/>
  <line class="cls-4" x1="91.35" y1="60.861" x2="98.871" y2="60.861"/>
  <path class="cls-5" d="M80.956,13.669a16.77,16.77,0,0,0-5.775.839c-5.1,1.746-8.483,5.8-8.281,11.41.4,11.142,1.225,2.581,4.064,2.581s16.819-.919,16.819-9.272C87.783,15.186,84.39,13.8,80.956,13.669Z"/>
  <path class="cls-5" d="M86.9,15.549c2.931-.408,4.747,2.435,5.76,5.847a23.791,23.791,0,0,1,.992,6.61,1.849,1.849,0,0,1-1.622,2.054c-.046.006-.093.01-.14.012a1.9,1.9,0,0,1-.54-.093c-1.6-.484-2.794-2.415-3.71-3.727-1.492-2.137-2.916-4.335-2.965-6.962C84.643,17.479,85.361,15.764,86.9,15.549Z"/>
  <path class="cls-6" d="M92.858,28.006c0,6.8-1.722,11.785-4.145,15.075s-5.548,4.881-8.357,4.881S74.422,46.371,72,43.081,67.855,34.8,67.855,28.006"/>
  <g>
    <rect class="cls-7" x="71.896" y="31.551" width="7.198" height="4.148" rx="0.908"/>
    <rect class="cls-7" x="81.619" y="31.551" width="7.198" height="4.148" rx="0.908"/>
    <path class="cls-7" d="M79.186,32.858a3.222,3.222,0,0,1,2.339,0"/>
  </g>
  <g>
    <path class="cls-8" d="M68.157,64.622c.216.055.432.126.648.2a3.757,3.757,0,0,0,1.5.275,1.622,1.622,0,0,0,1.222-.714,3.562,3.562,0,0,0,.452-1.641,10.287,10.287,0,0,0-.136-2.16A10.6,10.6,0,0,0,69.307,54.7c-1.605-1.7-3.818-2.533-5.832-1.06a7.989,7.989,0,0,0-2.86,4.518,12.94,12.94,0,0,0-.38,3.22,10.358,10.358,0,0,0,.161,2.16,3.589,3.589,0,0,0,.673,1.563,1.621,1.621,0,0,0,1.309.54,3.762,3.762,0,0,0,1.45-.478c.2-.1.405-.2.615-.283"/>
    <path class="cls-9" d="M63.873,65.137c.184-.09.369-.181.56-.258"/>
    <path class="cls-9" d="M68.748,64.8c-.2-.064-.391-.128-.591-.179"/>
  </g>
  <path class="cls-7" d="M68.072,31.961l.473-.173a3.524,3.524,0,0,1,1.522.077l1.842.441"/>
  <path class="cls-7" d="M92.641,31.961l-.474-.173a3.525,3.525,0,0,0-1.522.077l-1.836.441"/>
  <path class="cls-10" d="M68.641,48.6c-.334.132-.664.275-.987.432a4.081,4.081,0,0,0-.9.526,3.922,3.922,0,0,0-.619.705,3.366,3.366,0,0,0-.482,1.246,8.607,8.607,0,0,0-.136,1.221"/>
  <g>
    <path class="cls-1" d="M22.418,82.794H13.667v25.285h8.179q6.315,0,9.8-3.425T35.13,94.9q0-5.88-3.312-8.993T22.418,82.794Zm4.168,17.874a5.51,5.51,0,0,1-4.566,1.807H20.5V88.311h1.989a5.084,5.084,0,0,1,4.177,1.677,8.037,8.037,0,0,1,1.375,5.154Q28.039,98.861,26.586,100.668Z"/>
    <path class="cls-1" d="M56.869,90.265q0-7.471-10.307-7.471H38.278v25.283h6.834v-9.2l1.726,0,4.946,9.2h7.685L52.58,97.065Q56.87,94.659,56.869,90.265ZM46.392,93.744h-1.28V87.968h1.349q3.511,0,3.511,2.611Q49.972,93.744,46.392,93.744Z"/>
    <path class="cls-1" d="M88.2,94.833V94.66a4.848,4.848,0,0,0,2.871-1.937,6.021,6.021,0,0,0,1.09-3.632,5.187,5.187,0,0,0-2.5-4.764q-2.5-1.533-7.653-1.533H73.183v25.283h9.842a11.324,11.324,0,0,0,7.047-1.981,6.456,6.456,0,0,0,2.586-5.417,6.261,6.261,0,0,0-1.056-3.77A5.88,5.88,0,0,0,88.2,94.833Zm-8.18-6.869h1.92q3.216,0,3.216,2.127a2.11,2.11,0,0,1-.8,1.8,3.719,3.719,0,0,1-2.274.6H80.015Zm2.4,14.842h-2.4V97.5h2.262a3.94,3.94,0,0,1,2.482.675,2.321,2.321,0,0,1,.856,1.936Q85.615,102.806,82.415,102.806Z"/>
    <rect class="cls-1" x="96.712" y="82.794" width="6.867" height="25.285"/>
    <polygon class="cls-1" points="115.203 82.794 108.372 82.794 108.372 108.079 124.941 108.079 124.941 102.563 115.203 102.563 115.203 82.794"/>
    <polygon class="cls-1" points="135.978 102.563 135.978 82.794 129.145 82.794 129.145 108.079 145.711 108.079 145.711 102.563 135.978 102.563"/>
    <path class="cls-1" d="M64.944,101.871a3.328,3.328,0,1,0,3.328,3.328A3.328,3.328,0,0,0,64.944,101.871Z"/>
  </g>
  <rect class="cls-11" width="159.378" height="121.746"/>
</svg>
