<svg id="Layer_1" data-name="Layer 1" xmlns="http://www.w3.org/2000/svg" width="239.069" height="79" viewBox="0 0 239.069 79">
  <defs>
    <style>
      .cls-1 {
        fill: none;
      }

      .cls-2 {
        fill: #fff;
      }
    </style>
  </defs>
  <title>wordmark_reverse</title>
  <rect class="cls-1" width="239.069" height="79"/>
  <g>
    <path class="cls-2" d="M33.627,20.5H20.5V58.428H32.769q9.473,0,14.7-5.137T52.7,38.659q0-8.821-4.968-13.49T33.627,20.5Zm6.252,26.812q-2.179,2.711-6.848,2.711H30.748V28.776h2.983q4.2,0,6.265,2.516t2.063,7.731Q42.058,44.6,39.879,47.312Z"/>
    <path class="cls-2" d="M85.305,31.707q0-11.206-15.462-11.207H57.417V58.426H67.669v-13.8l2.589.006,7.418,13.8H89.2L78.871,41.907Q85.3,38.3,85.305,31.707ZM69.589,36.926h-1.92V28.262h2.023q5.267,0,5.267,3.917Q74.959,36.927,69.589,36.926Z"/>
    <path class="cls-2" d="M132.294,38.56V38.3a7.283,7.283,0,0,0,4.307-2.9,9.037,9.037,0,0,0,1.634-5.448,7.781,7.781,0,0,0-3.748-7.147q-3.749-2.3-11.48-2.3H109.776V58.425h14.762q6.692,0,10.571-2.971a9.682,9.682,0,0,0,3.879-8.126,9.4,9.4,0,0,0-1.583-5.655A8.828,8.828,0,0,0,132.294,38.56Zm-12.27-10.305H122.9q4.825,0,4.825,3.191a3.164,3.164,0,0,1-1.206,2.7,5.582,5.582,0,0,1-3.411.908h-3.087Zm3.6,22.264h-3.6V42.554h3.393a5.91,5.91,0,0,1,3.723,1.012,3.485,3.485,0,0,1,1.284,2.9Q128.424,50.52,123.624,50.519Z"/>
    <rect class="cls-2" x="145.069" y="20.5" width="10.3" height="37.928"/>
    <polygon class="cls-2" points="172.807 20.5 162.559 20.5 162.559 58.428 187.413 58.429 187.413 50.154 172.807 50.154 172.807 20.5"/>
    <polygon class="cls-2" points="203.969 50.154 203.969 20.5 193.719 20.5 193.719 58.428 218.569 58.429 218.569 50.154 203.969 50.154"/>
    <circle class="cls-2" cx="97.417" cy="54.109" r="4.992"/>
  </g>
</svg>
