<?xml version="1.0" encoding="utf-8"?>
<!-- Generator: Adobe Illustrator 23.0.6, SVG Export Plug-In . SVG Version: 6.00 Build 0)  -->
<svg version="1.1" id="Layer_1" xmlns="http://www.w3.org/2000/svg" xmlns:xlink="http://www.w3.org/1999/xlink" x="0px" y="0px"
	 viewBox="0 0 206 72" style="enable-background:new 0 0 206 72;" xml:space="preserve">
<style type="text/css">
	.st0{fill:#FFF100;}
	.st1{fill:none;}
</style>
<g>
	<g id="Component_21_1">
		<g>
			<g>
				<g id="Component_14" transform="translate(22 6)">
					<path id="Path_1" class="st0" d="M3.4,17.2c-1.9,0-3.4-1.5-3.4-3.4s1.5-3.4,3.4-3.4H59c1.9,0,3.4,1.5,3.4,3.4s-1.5,3.4-3.4,3.4
						l0,0H3.4z"/>
					<g>
						<path d="M32.7,22.9c-1.4-0.4-2.7,0.4-3.3,1.7l-6.1,14.9l-6.1-14.9c-0.6-1.3-1.9-2.1-3.3-1.7c-1.4,0.4-2.2,2-1.6,3.3l8.2,19.7
							l-3.9,9.6c-0.5,1.3,0.3,3,1.6,3.3c1.4,0.4,2.7-0.4,3.3-1.7l12.8-30.9C34.9,24.9,34,23.2,32.7,22.9z"/>
						<path d="M50,22.5c-6.8,0-12.3,4.8-12.3,12.4S43.2,47.5,50,47.5c3.5,0,7-1.3,9.4-3.8c0.9-1,0.9-2.6-0.1-3.3
							c-1.1-0.9-2.5-0.5-3.4,0.2c-1.7,1.4-3.2,2.3-5.7,2.3c-3.8,0-6.8-2.3-7.3-6h16.7c1.3,0,2.4-1,2.4-2.4
							C61.8,27.1,56.7,22.5,50,22.5z M42.9,33c0.5-3.7,3.4-5.9,7.1-5.9c3.6,0,6.3,2.2,6.8,5.9H42.9z"/>
						<path d="M69.9,9.7c-1.4,0-2.6,1.2-2.6,2.7v32.2c0,1.4,1.1,2.7,2.6,2.7c1.5,0,2.7-1.2,2.7-2.7V12.4C72.6,11,71.5,9.7,69.9,9.7z
							"/>
						<path d="M82.5,9.7c-1.4,0-2.6,1.2-2.6,2.7v32.2c0,1.4,1.1,2.7,2.6,2.7c1.5,0,2.7-1.2,2.7-2.7V12.4C85.2,11,84,9.7,82.5,9.7z"
							/>
						<path d="M103.5,22.5c-6.8,0-12.5,4.8-12.5,12.4s5.7,12.6,12.5,12.6c6.8,0,12.6-5,12.6-12.6S110.4,22.5,103.5,22.5z
							 M103.5,42.4c-4,0-7.2-2.9-7.2-7.4c0-4.4,3.3-7.3,7.2-7.3c4,0,7.3,2.9,7.3,7.3C110.9,39.5,107.5,42.4,103.5,42.4z"/>
						<path d="M153.8,22.8c-1.4-0.3-2.7,0.3-3.2,1.7l-5.1,14.6l-4.8-13.9c-0.5-1.5-1.6-2.3-3.1-2.3h-0.2c-1.5,0-2.6,0.8-3.1,2.3
							l-4.8,13.9l-5.1-14.6c-0.5-1.4-1.8-2-3.2-1.7c-1.4,0.3-2.3,2-1.7,3.3l7.1,18.9c0.5,1.5,1.6,2.2,2.8,2.2h0.2
							c1.2,0,2.2-0.7,2.7-2.2l5.2-14.8l5.2,14.8c0.5,1.5,1.5,2.2,2.7,2.2h0.2c1.2,0,2.3-0.7,2.8-2.2l7.1-18.9
							C156.1,24.8,155.3,23.1,153.8,22.8z"/>
					</g>
				</g>
			</g>
		</g>
	</g>
</g>
<rect class="st1" width="206" height="72"/>
</svg>
